<svg width="20" height="20" viewBox="0 0 20 20" fill="none" xmlns="http://www.w3.org/2000/svg">
<path d="M13.8655 2.14589C14.9461 2.149 15.9816 2.56377 16.7458 3.29962C17.5099 4.03547 17.9407 5.03261 17.9439 6.07325V13.9271C17.9407 14.9678 17.5099 15.9649 16.7458 16.7008C15.9816 17.4366 14.9461 17.8514 13.8655 17.8545H5.70952C4.62885 17.8514 3.59336 17.4366 2.82921 16.7008C2.06506 15.9649 1.63433 14.9678 1.6311 13.9271V6.07325C1.63433 5.03261 2.06506 4.03547 2.82921 3.29962C3.59336 2.56377 4.62885 2.149 5.70952 2.14589H13.8655ZM13.8655 0.575195H5.70952C2.56922 0.575195 0 3.04926 0 6.07325V13.9271C0 16.9511 2.56922 19.4252 5.70952 19.4252H13.8655C17.0058 19.4252 19.575 16.9511 19.575 13.9271V6.07325C19.575 3.04926 17.0058 0.575195 13.8655 0.575195Z" fill="white"/>
<path d="M15.089 6.07207C14.847 6.07207 14.6105 6.00298 14.4093 5.87352C14.2081 5.74407 14.0513 5.56007 13.9587 5.34479C13.8661 5.12952 13.8418 4.89264 13.889 4.66411C13.9362 4.43557 14.0528 4.22565 14.2239 4.06089C14.395 3.89612 14.613 3.78392 14.8503 3.73846C15.0876 3.693 15.3336 3.71633 15.5572 3.8055C15.7807 3.89467 15.9718 4.04567 16.1062 4.23941C16.2406 4.43316 16.3124 4.66093 16.3124 4.89395C16.3127 5.04875 16.2813 5.2021 16.22 5.34519C16.1586 5.48828 16.0685 5.61828 15.9548 5.72775C15.8412 5.83721 15.7062 5.92398 15.5576 5.98307C15.409 6.04216 15.2497 6.0724 15.089 6.07207ZM9.78755 6.85721C10.4328 6.85721 11.0636 7.04147 11.6002 7.3867C12.1367 7.73192 12.5549 8.22261 12.8018 8.7967C13.0488 9.37079 13.1134 10.0025 12.9875 10.6119C12.8616 11.2214 12.5509 11.7812 12.0946 12.2206C11.6383 12.66 11.057 12.9592 10.4241 13.0805C9.79117 13.2017 9.13516 13.1395 8.53899 12.9017C7.94282 12.6639 7.43326 12.2612 7.07476 11.7445C6.71626 11.2278 6.5249 10.6204 6.5249 9.99901C6.52583 9.16603 6.86987 8.36741 7.48153 7.77841C8.0932 7.18939 8.92253 6.8581 9.78755 6.85721ZM9.78755 5.28651C8.81966 5.28651 7.8735 5.5629 7.06873 6.08071C6.26396 6.59853 5.63671 7.33452 5.26632 8.19562C4.89592 9.05672 4.79901 10.0042 4.98783 10.9184C5.17666 11.8325 5.64274 12.6722 6.32715 13.3313C7.01155 13.9903 7.88353 14.4391 8.83283 14.621C9.78212 14.8028 10.7661 14.7095 11.6603 14.3528C12.5545 13.9961 13.3188 13.3921 13.8566 12.6171C14.3943 11.8422 14.6813 10.9311 14.6813 9.99901C14.6813 8.74918 14.1657 7.55054 13.248 6.66677C12.3302 5.78301 11.0855 5.28651 9.78755 5.28651Z" fill="white"/>
</svg>
