<svg width="63" height="60" viewBox="0 0 63 60" fill="none" xmlns="http://www.w3.org/2000/svg">
<path d="M56.1275 5.14084L51.9562 14.3467C51.7799 14.7357 51.6887 15.1579 51.6887 15.5849V56.3286C51.6887 57.4332 52.5842 58.3286 53.6887 58.3286H59.4771C60.5817 58.3286 61.4771 57.4332 61.4771 56.3287V15.5849C61.4771 15.1579 61.386 14.7357 61.2097 14.3467L57.0384 5.14084C56.861 4.74932 56.3049 4.74932 56.1275 5.14084Z" stroke="#D1B06B" stroke-width="2"/>
<path d="M51.6887 15.6318H57.1947H61.4771" stroke="#D1B06B" stroke-width="2"/>
<rect x="7.77417" y="26.4043" width="30.0057" height="2.50048" rx="1.25024" fill="#D1B06B"/>
<rect x="9.27466" y="9.15137" width="10.7517" height="8.2512" rx="1.5" stroke="#D1B06B" stroke-width="2"/>
<rect x="7.77417" y="38.9062" width="30.0057" height="2.50048" rx="1.25024" fill="#D1B06B"/>
<rect x="7.77417" y="45.1582" width="18.7536" height="2.50048" rx="1.25024" fill="#D1B06B"/>
<rect x="7.77417" y="32.6553" width="30.0057" height="2.50048" rx="1.25024" fill="#D1B06B"/>
<path d="M51.6887 52.8555H61.4771" stroke="#D1B06B" stroke-width="2"/>
<path d="M1.52295 8.39942V51.6006C1.52295 55.4666 4.65697 58.6006 8.52296 58.6006H37.6613C41.5273 58.6006 44.6613 55.4666 44.6613 51.6006V16.9573C44.6613 14.9698 43.8165 13.076 42.3375 11.7483L32.8046 3.19046C31.5201 2.03728 29.8547 1.39941 28.1285 1.39941H8.52295C4.65696 1.39941 1.52295 4.53343 1.52295 8.39942Z" stroke="#D1B06B" stroke-width="2"/>
<path d="M28.2896 1.63184V12.2809C28.2896 14.4901 30.0804 16.2809 32.2896 16.2809H43.6219" stroke="#D1B06B" stroke-width="2" stroke-linecap="round"/>
</svg>
