<svg width="20" height="20" viewBox="0 0 20 20" fill="none" xmlns="http://www.w3.org/2000/svg">
<path d="M10.0684 0.0571289C4.57638 0.0571289 0.123291 4.50823 0.123291 9.99777C0.123291 14.0672 2.57404 17.5642 6.07702 19.1041C6.05038 18.4118 6.07258 17.5775 6.25017 16.8231C6.44108 16.0154 7.52882 11.4045 7.52882 11.4045C7.52882 11.4045 7.20916 10.7699 7.20916 9.83357C7.20916 8.36022 8.06159 7.25965 9.12714 7.25965C10.0328 7.25965 10.4679 7.93863 10.4679 8.75075C10.4679 9.66049 9.88634 11.0185 9.58887 12.2788C9.34025 13.335 10.1172 14.1915 11.1605 14.1915C13.043 14.1915 14.3128 11.7729 14.3128 8.90607C14.3128 6.72712 12.8432 5.09845 10.1749 5.09845C7.16032 5.09845 5.27786 7.34841 5.27786 9.8602C5.27786 10.7256 5.53537 11.338 5.93494 11.8084C6.11697 12.0258 6.14361 12.1146 6.07702 12.3631C6.02818 12.5451 5.92163 12.9844 5.87279 13.1619C5.80619 13.4149 5.60196 13.5036 5.37553 13.4104C3.98589 12.8424 3.33768 11.3247 3.33768 9.61168C3.33768 6.78925 5.72184 3.40322 10.4457 3.40322C14.2417 3.40322 16.7413 6.15021 16.7413 9.0969C16.7413 12.9977 14.5703 15.9089 11.3737 15.9089C10.2992 15.9089 9.29141 15.3275 8.94511 14.6708C8.94511 14.6708 8.36794 16.9607 8.24362 17.4044C8.03495 18.1722 7.62206 18.9355 7.24468 19.5346C8.1601 19.8045 9.10949 19.942 10.0639 19.9428C15.5559 19.9428 20.009 15.4917 20.009 10.0022C20.009 4.51267 15.5604 0.0571289 10.0684 0.0571289Z" fill="white"/>
</svg>
