<svg width="22" height="18" viewBox="0 0 22 18" fill="none" xmlns="http://www.w3.org/2000/svg">
<path d="M21.1231 2.59893C20.3364 2.94078 19.504 3.16599 18.6522 3.26745C19.5474 2.74329 20.2205 1.91056 20.5455 0.925445C19.6992 1.42032 18.7748 1.76755 17.812 1.95226C17.4065 1.52735 16.9189 1.18932 16.3788 0.958716C15.8386 0.728116 15.2572 0.609762 14.6699 0.610847C12.2921 0.610847 10.3678 2.50717 10.3678 4.84481C10.3661 5.16997 10.4034 5.49416 10.4788 5.81046C8.77369 5.73052 7.10406 5.29556 5.57671 4.53339C4.04936 3.77122 2.69792 2.69863 1.60885 1.38423C1.22678 2.02834 1.02472 2.76324 1.02379 3.51214C1.02379 4.98027 1.78975 6.27798 2.94633 7.03826C2.26109 7.022 1.58988 6.84063 0.989705 6.50956V6.562C0.989705 8.61562 2.47531 10.3241 4.44155 10.7129C4.0718 10.8115 3.69078 10.8615 3.30812 10.8615C3.03659 10.862 2.76569 10.8356 2.49934 10.7829C3.04595 12.4651 4.63686 13.6885 6.52139 13.7235C4.99007 14.9036 3.11002 15.5415 1.17672 15.5368C0.83355 15.5363 0.490702 15.5158 0.149902 15.4756C2.11666 16.7315 4.40285 17.3958 6.73637 17.3894C14.6607 17.3894 18.99 10.9358 18.99 5.33856C18.99 5.15504 18.9852 4.97153 18.9764 4.79238C19.8167 4.19467 20.5436 3.45189 21.1231 2.59893Z" fill="white"/>
</svg>
